<?xml version="1.0" encoding="UTF-8" standalone="no"?>
<!DOCTYPE svg PUBLIC "-//W3C//DTD SVG 1.1//EN"
 "http://www.w3.org/Graphics/SVG/1.1/DTD/svg11.dtd">
<!-- Generated by graphviz version 2.38.0 (20140413.2041)
 -->
<!-- Title: %345 Pages: 1 -->
<svg width="1408pt" height="260pt"
 viewBox="0.00 0.00 1407.84 260.00" xmlns="http://www.w3.org/2000/svg" xmlns:xlink="http://www.w3.org/1999/xlink">
<g id="graph0" class="graph" transform="scale(1 1) rotate(0) translate(4 256)">
<title>%345</title>
<polygon fill="white" stroke="none" points="-4,4 -4,-256 1403.84,-256 1403.84,4 -4,4"/>
<!-- profile -->
<g id="node1" class="node"><title>profile</title>
<ellipse fill="none" stroke="black" cx="744.746" cy="-234" rx="34.394" ry="18"/>
<text text-anchor="middle" x="744.746" y="-230.3" font-family="Times New Roman,serif" font-size="14.00">profile</text>
</g>
<!-- product -->
<g id="node2" class="node"><title>product</title>
<ellipse fill="none" stroke="black" cx="271.746" cy="-90" rx="39.7935" ry="18"/>
<text text-anchor="middle" x="271.746" y="-86.3" font-family="Times New Roman,serif" font-size="14.00">product</text>
</g>
<!-- profile&#45;&#45;product -->
<g id="edge1" class="edge"><title>profile&#45;&#45;product</title>
<path fill="none" stroke="black" d="M710.571,-231.326C627.206,-226.777 415.706,-212.298 353.746,-180 321.515,-163.199 295.398,-128.461 281.851,-107.702"/>
</g>
<!-- favorite -->
<g id="node3" class="node"><title>favorite</title>
<ellipse fill="none" stroke="black" cx="400.746" cy="-162" rx="38.1938" ry="18"/>
<text text-anchor="middle" x="400.746" y="-158.3" font-family="Times New Roman,serif" font-size="14.00">favorite</text>
</g>
<!-- profile&#45;&#45;favorite -->
<g id="edge2" class="edge"><title>profile&#45;&#45;favorite</title>
<path fill="none" stroke="black" d="M711.016,-229.474C654.08,-222.549 536.392,-205.584 439.746,-180 435.131,-178.778 430.327,-177.316 425.704,-175.768"/>
</g>
<!-- profileId -->
<g id="node4" class="node"><title>profileId</title>
<ellipse fill="none" stroke="black" cx="499.746" cy="-162" rx="42.4939" ry="18"/>
<text text-anchor="middle" x="499.746" y="-158.3" font-family="Times New Roman,serif" font-size="14.00">profileId</text>
</g>
<!-- profile&#45;&#45;profileId -->
<g id="edge3" class="edge"><title>profile&#45;&#45;profileId</title>
<path fill="none" stroke="black" d="M714.355,-225.251C676.037,-215.354 608.219,-197.415 550.746,-180 544.493,-178.105 537.847,-175.976 531.49,-173.882"/>
</g>
<!-- profileActivationToken -->
<g id="node5" class="node"><title>profileActivationToken</title>
<ellipse fill="none" stroke="black" cx="654.746" cy="-162" rx="94.7833" ry="18"/>
<text text-anchor="middle" x="654.746" y="-158.3" font-family="Times New Roman,serif" font-size="14.00">profileActivationToken</text>
</g>
<!-- profile&#45;&#45;profileActivationToken -->
<g id="edge4" class="edge"><title>profile&#45;&#45;profileActivationToken</title>
<path fill="none" stroke="black" d="M726.098,-218.496C711.578,-207.203 691.407,-191.515 676.215,-179.699"/>
</g>
<!-- profileAtHandle -->
<g id="node6" class="node"><title>profileAtHandle</title>
<ellipse fill="none" stroke="black" cx="835.746" cy="-162" rx="68.4888" ry="18"/>
<text text-anchor="middle" x="835.746" y="-158.3" font-family="Times New Roman,serif" font-size="14.00">profileAtHandle</text>
</g>
<!-- profile&#45;&#45;profileAtHandle -->
<g id="edge5" class="edge"><title>profile&#45;&#45;profileAtHandle</title>
<path fill="none" stroke="black" d="M763.601,-218.496C778.49,-207.043 799.256,-191.069 814.688,-179.198"/>
</g>
<!-- profileEmail -->
<g id="node7" class="node"><title>profileEmail</title>
<ellipse fill="none" stroke="black" cx="975.746" cy="-162" rx="53.8905" ry="18"/>
<text text-anchor="middle" x="975.746" y="-158.3" font-family="Times New Roman,serif" font-size="14.00">profileEmail</text>
</g>
<!-- profile&#45;&#45;profileEmail -->
<g id="edge6" class="edge"><title>profile&#45;&#45;profileEmail</title>
<path fill="none" stroke="black" d="M774.002,-224.134C815.401,-211.589 891.144,-188.637 937.12,-174.705"/>
</g>
<!-- profileHash -->
<g id="node8" class="node"><title>profileHash</title>
<ellipse fill="none" stroke="black" cx="1100.75" cy="-162" rx="52.7911" ry="18"/>
<text text-anchor="middle" x="1100.75" y="-158.3" font-family="Times New Roman,serif" font-size="14.00">profileHash</text>
</g>
<!-- profile&#45;&#45;profileHash -->
<g id="edge7" class="edge"><title>profile&#45;&#45;profileHash</title>
<path fill="none" stroke="black" d="M777.567,-228.064C832.095,-219.645 944.666,-201.333 1038.75,-180 1046.26,-178.297 1054.22,-176.277 1061.85,-174.235"/>
</g>
<!-- profilePhone -->
<g id="node9" class="node"><title>profilePhone</title>
<ellipse fill="none" stroke="black" cx="1228.75" cy="-162" rx="57.3905" ry="18"/>
<text text-anchor="middle" x="1228.75" y="-158.3" font-family="Times New Roman,serif" font-size="14.00">profilePhone</text>
</g>
<!-- profile&#45;&#45;profilePhone -->
<g id="edge8" class="edge"><title>profile&#45;&#45;profilePhone</title>
<path fill="none" stroke="black" d="M778.565,-230.169C849.975,-223.872 1021.21,-207.09 1162.75,-180 1170.76,-178.465 1179.26,-176.523 1187.38,-174.504"/>
</g>
<!-- profileSalt -->
<g id="node10" class="node"><title>profileSalt</title>
<ellipse fill="none" stroke="black" cx="1351.75" cy="-162" rx="48.1917" ry="18"/>
<text text-anchor="middle" x="1351.75" y="-158.3" font-family="Times New Roman,serif" font-size="14.00">profileSalt</text>
</g>
<!-- profile&#45;&#45;profileSalt -->
<g id="edge9" class="edge"><title>profile&#45;&#45;profileSalt</title>
<path fill="none" stroke="black" d="M779.19,-231.996C866.312,-228.956 1102.21,-217.619 1294.75,-180 1302.04,-178.574 1309.74,-176.606 1317.05,-174.513"/>
</g>
<!-- productID -->
<g id="node11" class="node"><title>productID</title>
<ellipse fill="none" stroke="black" cx="48.7457" cy="-18" rx="48.9926" ry="18"/>
<text text-anchor="middle" x="48.7457" y="-14.3" font-family="Times New Roman,serif" font-size="14.00">productID</text>
</g>
<!-- product&#45;&#45;productID -->
<g id="edge10" class="edge"><title>product&#45;&#45;productID</title>
<path fill="none" stroke="black" d="M239.795,-78.9707C198.728,-66.0796 127.618,-43.7582 84.7003,-30.2862"/>
</g>
<!-- productProfileId -->
<g id="node12" class="node"><title>productProfileId</title>
<ellipse fill="none" stroke="black" cx="186.746" cy="-18" rx="71.4873" ry="18"/>
<text text-anchor="middle" x="186.746" y="-14.3" font-family="Times New Roman,serif" font-size="14.00">productProfileId</text>
</g>
<!-- product&#45;&#45;productProfileId -->
<g id="edge11" class="edge"><title>product&#45;&#45;productProfileId</title>
<path fill="none" stroke="black" d="M253.302,-73.811C239.533,-62.4718 220.741,-46.996 206.636,-35.3801"/>
</g>
<!-- productDescription -->
<g id="node13" class="node"><title>productDescription</title>
<ellipse fill="none" stroke="black" cx="357.746" cy="-18" rx="81.4863" ry="18"/>
<text text-anchor="middle" x="357.746" y="-14.3" font-family="Times New Roman,serif" font-size="14.00">productDescription</text>
</g>
<!-- product&#45;&#45;productDescription -->
<g id="edge12" class="edge"><title>product&#45;&#45;productDescription</title>
<path fill="none" stroke="black" d="M290.406,-73.811C304.239,-62.5522 323.081,-47.2153 337.317,-35.6278"/>
</g>
<!-- productDateTime -->
<g id="node14" class="node"><title>productDateTime</title>
<ellipse fill="none" stroke="black" cx="531.746" cy="-18" rx="74.9875" ry="18"/>
<text text-anchor="middle" x="531.746" y="-14.3" font-family="Times New Roman,serif" font-size="14.00">productDateTime</text>
</g>
<!-- product&#45;&#45;productDateTime -->
<g id="edge13" class="edge"><title>product&#45;&#45;productDateTime</title>
<path fill="none" stroke="black" d="M301.67,-78.1511C307.939,-76.0098 314.533,-73.854 320.746,-72 374.13,-56.0684 436.044,-40.9009 478.936,-30.9058"/>
</g>
<!-- favorite&#45;&#45;profile -->
<g id="edge15" class="edge"><title>favorite&#45;&#45;profile</title>
<path fill="none" stroke="black" d="M432.728,-172.164C440.924,-174.956 449.627,-177.851 457.746,-180 548.588,-204.047 658.021,-220.48 711.862,-228.118"/>
</g>
<!-- favorite&#45;&#45;product -->
<g id="edge14" class="edge"><title>favorite&#45;&#45;product</title>
<path fill="none" stroke="black" d="M376.482,-147.834C353.565,-135.398 319.364,-116.839 296.339,-104.345"/>
</g>
<!-- favoriteProfileID -->
<g id="node15" class="node"><title>favoriteProfileID</title>
<ellipse fill="none" stroke="black" cx="400.746" cy="-90" rx="71.4873" ry="18"/>
<text text-anchor="middle" x="400.746" y="-86.3" font-family="Times New Roman,serif" font-size="14.00">favoriteProfileID</text>
</g>
<!-- favorite&#45;&#45;favoriteProfileID -->
<g id="edge16" class="edge"><title>favorite&#45;&#45;favoriteProfileID</title>
<path fill="none" stroke="black" d="M400.746,-143.697C400.746,-132.846 400.746,-118.917 400.746,-108.104"/>
</g>
<!-- favoriteProductID -->
<g id="node16" class="node"><title>favoriteProductID</title>
<ellipse fill="none" stroke="black" cx="566.746" cy="-90" rx="76.8869" ry="18"/>
<text text-anchor="middle" x="566.746" y="-86.3" font-family="Times New Roman,serif" font-size="14.00">favoriteProductID</text>
</g>
<!-- favorite&#45;&#45;favoriteProductID -->
<g id="edge17" class="edge"><title>favorite&#45;&#45;favoriteProductID</title>
<path fill="none" stroke="black" d="M428.53,-149.284C456.681,-137.413 500.34,-119.002 531.041,-106.056"/>
</g>
<!-- favoriteDate -->
<g id="node17" class="node"><title>favoriteDate</title>
<ellipse fill="none" stroke="black" cx="715.746" cy="-90" rx="54.6905" ry="18"/>
<text text-anchor="middle" x="715.746" y="-86.3" font-family="Times New Roman,serif" font-size="14.00">favoriteDate</text>
</g>
<!-- favorite&#45;&#45;favoriteDate -->
<g id="edge18" class="edge"><title>favorite&#45;&#45;favoriteDate</title>
<path fill="none" stroke="black" d="M429.44,-149.967C435.74,-147.79 442.419,-145.666 448.746,-144 537.777,-120.551 562.879,-128.013 652.746,-108 660.265,-106.325 668.235,-104.341 675.885,-102.33"/>
</g>
</g>
</svg>
